# xmcd
#
# Track frame offsets:
#	150
#	26845
#	56345
#	73057
#	93097
#	104570
#	134020
#	149292
#	188025
#
# Disc length: 2831 seconds
#
# Revision: 4
# Processed by: cddbd v1.5PL3 Copyright (c) Steve Scherf et al.
# Submitted via: CDex 1.50Beta5
#
DISCID=820b0d09
DTITLE=Lee Oskar - Those Sunny Days
DYEAR=1996
DGENRE=Jazz
TTITLE0=Those Sunny Days
TTITLE1=Georgia On My Mind
TTITLE2=In A Sentimental Mood
TTITLE3=Here, There And Everywhere
TTITLE4=Peg O'My Heart
TTITLE5=When I Fall In Love
TTITLE6=When You Wish Upon A Star
TTITLE7=Somewhere Over The Rainbow
TTITLE8=Coming Home, Baby
EXTD=
EXTT0=
EXTT1=
EXTT2=
EXTT3=
EXTT4=
EXTT5=
EXTT6=
EXTT7=
EXTT8=
PLAYORDER=
